<?xml version="1.0" encoding="UTF-8" standalone="no"?>
<svg
   xmlns:dc="http://purl.org/dc/elements/1.1/"
   xmlns:cc="http://creativecommons.org/ns#"
   xmlns:rdf="http://www.w3.org/1999/02/22-rdf-syntax-ns#"
   xmlns:svg="http://www.w3.org/2000/svg"
   xmlns="http://www.w3.org/2000/svg"
   viewBox="0 0 1066.6667 1066.6667"
   height="1066.6667"
   width="1066.6667"
   xml:space="preserve"
   id="svg2"
   version="1.1"><metadata
     id="metadata8"><rdf:RDF><cc:Work
         rdf:about=""><dc:format>image/svg+xml</dc:format><dc:type
           rdf:resource="http://purl.org/dc/dcmitype/StillImage" /></cc:Work></rdf:RDF></metadata><defs
     id="defs6"><clipPath
       id="clipPath18"
       clipPathUnits="userSpaceOnUse"><path
         id="path16"
         d="M 0,800 H 800 V 0 H 0 Z" /></clipPath><clipPath
       id="clipPath42"
       clipPathUnits="userSpaceOnUse"><path
         id="path40"
         d="M 0,800 H 800 V 0 H 0 Z" /></clipPath></defs><g
     transform="matrix(1.3333333,0,0,-1.3333333,0,1066.6667)"
     id="g10"><g
       id="g12"><g
         clip-path="url(#clipPath18)"
         id="g14"><g
           transform="translate(486,197)"
           id="g20"><path
             id="path22"
             style="fill:#373535;fill-opacity:1;fill-rule:nonzero;stroke:none"
             d="m 0,0 c -38.134,-21.16 -94.414,-65.889 -163.111,-65.889 -150.344,0 -272.222,121.523 -272.222,271.429 0,149.905 121.878,271.428 272.222,271.428 126.951,0 233.606,-86.648 263.722,-203.867 0,0 3.269,-18.475 17.96,-9.006 11.616,7.487 37.936,25.211 48.86,31.657 2.556,1.508 5.856,-0.052 6.658,-2.909 0,0 0.105,-7.501 2.074,-14.513 1.968,-7.013 5.853,-13.728 5.853,-13.728 0.933,-3.324 -0.763,-6.821 -3.951,-8.146 L 118.42,226.659 c -3.623,-1.506 -5.814,-5.266 -5.245,-9.149 1.816,-12.397 13.24,-36.135 76.031,-24.843 28.361,5.1 43.626,10.855 51.466,12.199 2.523,0.433 4.911,-1.273 5.328,-3.799 0,0 0.768,-29.694 3.238,-42.409 2.47,-12.715 11.747,-34.732 11.747,-34.732 0.303,-1.835 -0.235,-3.7 -1.454,-5.104 -4.771,-5.496 -18.849,-18.556 -45.721,-19.806 -34.128,-1.587 -53.175,9.524 -78.572,23.016 -25.397,13.492 -31.233,24.68 -42.063,17.46 C 83.651,133.143 86.862,116.55 85.238,95.841 83.662,75.737 79.861,67.859 74.127,58.54 60.146,35.817 27.121,15.048 0,0" /></g><g
           transform="translate(486,197)"
           id="g24"><path
             id="path26"
             style="fill:none;stroke:#373535;stroke-width:1;stroke-linecap:butt;stroke-linejoin:miter;stroke-miterlimit:10;stroke-dasharray:none;stroke-opacity:1"
             d="m 0,0 c -38.134,-21.16 -94.414,-65.889 -163.111,-65.889 -150.344,0 -272.222,121.523 -272.222,271.429 0,149.905 121.878,271.428 272.222,271.428 126.951,0 233.606,-86.648 263.722,-203.867 0,0 3.269,-18.475 17.96,-9.006 11.616,7.487 37.936,25.211 48.86,31.657 2.556,1.508 5.856,-0.052 6.658,-2.909 0,0 0.105,-7.501 2.074,-14.513 1.968,-7.013 5.853,-13.728 5.853,-13.728 0.933,-3.324 -0.763,-6.821 -3.951,-8.146 L 118.42,226.659 c -3.623,-1.506 -5.814,-5.266 -5.245,-9.149 1.816,-12.397 13.24,-36.135 76.031,-24.843 28.361,5.1 43.626,10.855 51.466,12.199 2.523,0.433 4.911,-1.273 5.328,-3.799 0,0 0.768,-29.694 3.238,-42.409 2.47,-12.715 11.747,-34.732 11.747,-34.732 0.303,-1.835 -0.235,-3.7 -1.454,-5.104 -4.771,-5.496 -18.849,-18.556 -45.721,-19.806 -34.128,-1.587 -53.175,9.524 -78.572,23.016 -25.397,13.492 -31.233,24.68 -42.063,17.46 C 83.651,133.143 86.862,116.55 85.238,95.841 83.662,75.737 79.861,67.859 74.127,58.54 60.146,35.817 27.121,15.048 0,0 Z" /></g><g
           transform="translate(565.3333,341.6667)"
           id="g28"><path
             id="path30"
             style="fill:#ffffff;fill-opacity:1;fill-rule:nonzero;stroke:none"
             d="m 0,0 c -3.604,-10.036 -13.203,-27.101 -29.869,-29.434 -16.506,-2.311 -36.131,10.767 -39.464,14.101 12.981,1.379 19.67,0.97 19.67,0.97 0,0 4.714,-8.929 16.663,-7.637 12.333,1.333 11.333,12.667 11.333,12.667 0,0 8.823,3.332 21.667,9.333 m -115,-6.333 c -5.572,-6.264 -16.327,-9.438 -16.327,-9.438 0,0 -8.34,13.438 -25.467,16.152 -10.407,1.649 -65.252,-3.955 -65.252,-3.955 0,0 -30.834,-1.205 -51.954,4.907 -22.159,6.413 -36.571,22.127 -36,32 7.762,-6.206 16.667,-15.666 39.667,-23.333 23,-7.667 45.285,-8.032 45.285,-8.032 0,0 28.461,1.143 34.921,1.588 6.46,0.444 -2.381,9.523 -2.381,9.523 0,0 -11.542,-8.536 -34.127,-4.762 C -248.667,12 -241.333,34 -241.333,34 c 0,0 -60.667,21.333 -76.334,24.333 -8.085,1.549 -7.304,12.343 4.524,9.508 18.81,-4.508 151.637,-58.171 158.73,-60.317 12.746,-3.857 12.699,11.111 12.699,11.111 0,0 1.649,-13.904 5.381,-18.968 4.666,-6.334 13,-6 17.333,-2 3.616,3.338 9.667,17 9.667,17 0,0 -0.969,-19.13 8.379,-22.13 7.133,-2.289 26.94,-4.433 51.287,-1.204 C -17,-4.333 -4.333,1.333 17,21 c 15.048,13.872 4.101,26.241 1.667,27.667 -2.435,1.425 -5.4,1.611 -7.992,0.495 C 2.171,45.502 -26.561,33.257 -37,30 -47.413,26.751 -69.566,26.168 -91.667,29.667 -177.19,43.206 -321.873,130.54 -339.333,138.476 c -17.461,7.937 -48.413,19.841 -65.08,-3.968 -16.666,-23.81 -20.635,-71.429 20.635,-121.429 41.27,-50 85.714,-55.555 103.968,-57.142 18.254,-1.588 48.344,-2.578 54.81,-4.27 8.642,-2.262 18.571,-7.472 26.352,-7.715 19.198,-0.6 75.188,12.778 102.172,8.81 26.984,-3.968 65.873,-25.397 76.19,-26.984 10.318,-1.588 11.905,9.524 11.905,9.524 0,0 1.381,35.698 5.381,47.031 -4.331,-7.33 -16.64,-15.955 -23,-17 -13.296,-2.184 -27.51,5.987 -49.333,16 C -88.968,-12.41 -115,-6.333 -115,-6.333" /></g><g
           transform="translate(565.3333,341.6667)"
           id="g32"><path
             id="path34"
             style="fill:none;stroke:#373535;stroke-width:1;stroke-linecap:butt;stroke-linejoin:miter;stroke-miterlimit:10;stroke-dasharray:none;stroke-opacity:1"
             d="m 0,0 c -3.604,-10.036 -13.203,-27.101 -29.869,-29.434 -16.506,-2.311 -36.131,10.767 -39.464,14.101 12.981,1.379 19.67,0.97 19.67,0.97 0,0 4.714,-8.929 16.663,-7.637 12.333,1.333 11.333,12.667 11.333,12.667 0,0 8.823,3.332 21.667,9.333 z m -115,-6.333 c -5.572,-6.264 -16.327,-9.438 -16.327,-9.438 0,0 -8.34,13.438 -25.467,16.152 -10.407,1.649 -65.252,-3.955 -65.252,-3.955 0,0 -30.834,-1.205 -51.954,4.907 -22.159,6.413 -36.571,22.127 -36,32 7.762,-6.206 16.667,-15.666 39.667,-23.333 23,-7.667 45.285,-8.032 45.285,-8.032 0,0 28.461,1.143 34.921,1.588 6.46,0.444 -2.381,9.523 -2.381,9.523 0,0 -11.542,-8.536 -34.127,-4.762 C -248.667,12 -241.333,34 -241.333,34 c 0,0 -60.667,21.333 -76.334,24.333 -8.085,1.549 -7.304,12.343 4.524,9.508 18.81,-4.508 151.637,-58.171 158.73,-60.317 12.746,-3.857 12.699,11.111 12.699,11.111 0,0 1.649,-13.904 5.381,-18.968 4.666,-6.334 13,-6 17.333,-2 3.616,3.338 9.667,17 9.667,17 0,0 -0.969,-19.13 8.379,-22.13 7.133,-2.289 26.94,-4.433 51.287,-1.204 C -17,-4.333 -4.333,1.333 17,21 c 15.048,13.872 4.101,26.241 1.667,27.667 -2.435,1.425 -5.4,1.611 -7.992,0.495 C 2.171,45.502 -26.561,33.257 -37,30 -47.413,26.751 -69.566,26.168 -91.667,29.667 -177.19,43.206 -321.873,130.54 -339.333,138.476 c -17.461,7.937 -48.413,19.841 -65.08,-3.968 -16.666,-23.81 -20.635,-71.429 20.635,-121.429 41.27,-50 85.714,-55.555 103.968,-57.142 18.254,-1.588 48.344,-2.578 54.81,-4.27 8.642,-2.262 18.571,-7.472 26.352,-7.715 19.198,-0.6 75.188,12.778 102.172,8.81 26.984,-3.968 65.873,-25.397 76.19,-26.984 10.318,-1.588 11.905,9.524 11.905,9.524 0,0 1.381,35.698 5.381,47.031 -4.331,-7.33 -16.64,-15.955 -23,-17 -13.296,-2.184 -27.51,5.987 -49.333,16 C -88.968,-12.41 -115,-6.333 -115,-6.333 Z" /></g></g></g><g
       id="g36"><g
         clip-path="url(#clipPath42)"
         id="g38"><g
           transform="translate(513.2736,475.4587)"
           id="g44"><path
             id="path46"
             style="fill:#ffffff;fill-opacity:1;fill-rule:nonzero;stroke:none"
             d="m 0,0 c -11.274,-14.874 -35.576,-16.294 -51.902,-0.857 -15.939,15.071 -14.082,36.747 1.195,46.986 12.997,8.71 31.961,6.233 44.209,-4.595 C 5.97,30.512 9.533,12.577 0,0 m 10.494,-20.476 c 3.682,4.121 6.448,8.725 8.335,13.562 l 14.297,-5.757 1.476,21.589 -12.906,5.584 c -0.456,4.594 -1.576,9.193 -3.354,13.667 l 9.626,3.835 -10.798,16.32 -9.756,-2.82 c -3.162,3.466 -6.71,6.535 -10.516,9.162 v 0.001 l 2.796,8.748 -17.819,8.617 -3.903,-8.459 v 0 0 c -4.611,1.304 -9.434,2.097 -14.343,2.291 l -5.763,10.617 -21.629,-2.3 5.549,-11.65 c -5.008,-1.835 -9.6,-4.383 -13.642,-7.551 l -16.932,7.326 -16.943,-19.064 19.344,-7.789 c -2.126,-5.521 -3.201,-11.571 -2.986,-17.93 l -24.613,-7.115 8.779,-31.466 25.63,10.212 c 4.303,-6.132 9.765,-11.384 16.032,-15.563 l -11.449,-24.813 34.657,-10.604 7.938,24.834 c 7.022,-0.443 13.954,0.341 20.474,2.358 l 9.712,-20.387 22.278,16.911 z" /></g></g></g></g></svg>